<svg width="100%" height="100%" id="svg" viewBox="200 -300 1000 990" xmlns="http://www.w3.org/2000/svg" class="transition duration-300 ease-in-out delay-150" xmlns:bx="https://boxy-svg.com">
  <style>
    .path-0 {
      animation: pathAnim-0 5s;
      animation-timing-function: linear;
      animation-iteration-count: infinite;
    }

    @keyframes pathAnim-0 {
      0% {
        d: path("M 0,700 L 0,175 C 136.92857142857144,149.60714285714286 273.8571428571429,124.21428571428572 404,128 C 534.1428571428571,131.78571428571428 657.5000000000001,164.75000000000003 780,184 C 902.4999999999999,203.24999999999997 1024.142857142857,208.78571428571428 1134,205 C 1243.857142857143,201.21428571428572 1341.9285714285716,188.10714285714286 1440,175 L 1440,700 L 0,700 Z");
      }

      25% {
        d: path("M 0,700 L 0,175 C 91.46428571428572,172.78571428571428 182.92857142857144,170.57142857142858 319,178 C 455.07142857142856,185.42857142857142 635.75,202.5 780,207 C 924.25,211.5 1032.0714285714284,203.42857142857142 1136,196 C 1239.9285714285716,188.57142857142858 1339.9642857142858,181.78571428571428 1440,175 L 1440,700 L 0,700 Z");
      }

      50% {
        d: path("M 0,700 L 0,175 C 111.82142857142858,215 223.64285714285717,255 337,236 C 450.35714285714283,217 565.2499999999999,139 704,107 C 842.7500000000001,75 1005.3571428571429,89 1132,108 C 1258.642857142857,127 1349.3214285714284,151 1440,175 L 1440,700 L 0,700 Z");
      }

      75% {
        d: path("M 0,700 L 0,175 C 113.5,207.35714285714286 227,239.71428571428572 351,259 C 475,278.2857142857143 609.5,284.5 724,256 C 838.5,227.50000000000003 933,164.28571428571428 1049,145 C 1165,125.71428571428571 1302.5,150.35714285714286 1440,175 L 1440,700 L 0,700 Z");
      }

      100% {
        d: path("M 0,700 L 0,175 C 136.92857142857144,149.60714285714286 273.8571428571429,124.21428571428572 404,128 C 534.1428571428571,131.78571428571428 657.5000000000001,164.75000000000003 780,184 C 902.4999999999999,203.24999999999997 1024.142857142857,208.78571428571428 1134,205 C 1243.857142857143,201.21428571428572 1341.9285714285716,188.10714285714286 1440,175 L 1440,700 L 0,700 Z");
      }
    }

    .path-1 {
      animation: pathAnim-1 5s;
      animation-timing-function: linear;
      animation-iteration-count: infinite;
    }

    @keyframes pathAnim-1 {
      0% {
        d: path("M 0,700 L 0,408 C 136.64285714285714,427.9642857142857 273.2857142857143,447.92857142857144 385,438 C 496.7142857142857,428.07142857142856 583.4999999999999,388.25 710,378 C 836.5000000000001,367.75 1002.7142857142858,387.0714285714286 1131,397 C 1259.2857142857142,406.9285714285714 1349.642857142857,407.46428571428567 1440,408 L 1440,700 L 0,700 Z");
      }

      25% {
        d: path("M 0,700 L 0,408 C 119.28571428571428,438.8571428571429 238.57142857142856,469.7142857142857 360,487 C 481.42857142857144,504.2857142857143 604.9999999999999,508 738,478 C 871.0000000000001,448 1013.4285714285713,384.2857142857143 1132,367 C 1250.5714285714287,349.7142857142857 1345.2857142857142,378.8571428571429 1440,408 L 1440,700 L 0,700 Z");
      }

      50% {
        d: path("M 0,700 L 0,408 C 138.82142857142858,442.57142857142856 277.64285714285717,477.14285714285717 378,478 C 478.35714285714283,478.85714285714283 540.2499999999999,446 666,425 C 791.7500000000001,404 981.3571428571429,394.85714285714283 1121,394 C 1260.642857142857,393.14285714285717 1350.3214285714284,400.57142857142856 1440,408 L 1440,700 L 0,700 Z");
      }

      75% {
        d: path("M 0,700 L 0,408 C 86.39285714285714,410.3571428571429 172.78571428571428,412.7142857142857 308,416 C 443.2142857142857,419.2857142857143 627.25,423.50000000000006 749,416 C 870.75,408.49999999999994 930.2142857142858,389.2857142857143 1035,386 C 1139.7857142857142,382.7142857142857 1289.892857142857,395.3571428571429 1440,408 L 1440,700 L 0,700 Z");
      }

      100% {
        d: path("M 0,700 L 0,408 C 136.64285714285714,427.9642857142857 273.2857142857143,447.92857142857144 385,438 C 496.7142857142857,428.07142857142856 583.4999999999999,388.25 710,378 C 836.5000000000001,367.75 1002.7142857142858,387.0714285714286 1131,397 C 1259.2857142857142,406.9285714285714 1349.642857142857,407.46428571428567 1440,408 L 1440,700 L 0,700 Z");
      }
    }
  </style>
  <defs>
    <linearGradient id="gradient" x1="50%" y1="100%" x2="50%" y2="0%">
      <stop offset="0.05" stop-color="rgba(255,255,255,0.2)"></stop>
      <stop offset="0.95" stop-color="rgba(255,255,255,0.4)"></stop>
    </linearGradient>
  </defs>
  <rect x="200" y="-300" width="1000" height="1000" rx="100" ry="100" style="fill: rgb(0, 122, 255); stroke: rgb(0, 0, 0); stroke-width: 1;"></rect>
  <path d="M 0,700 L 0,175 C 136.92857142857144,149.60714285714286 273.8571428571429,124.21428571428572 404,128 C 534.1428571428571,131.78571428571428 657.5000000000001,164.75000000000003 780,184 C 902.4999999999999,203.24999999999997 1024.142857142857,208.78571428571428 1134,205 C 1243.857142857143,201.21428571428572 1341.9285714285716,188.10714285714286 1440,175 L 1440,700 L 0,700 Z" stroke="none" stroke-width="0" fill="url(#gradient)" fill-opacity="0.53" class="transition-all duration-300 ease-in-out delay-150 path-0"></path>
  <path d="M 0,700 L 0,408 C 136.64285714285714,427.9642857142857 273.2857142857143,447.92857142857144 385,438 C 496.7142857142857,428.07142857142856 583.4999999999999,388.25 710,378 C 836.5000000000001,367.75 1002.7142857142858,387.0714285714286 1131,397 C 1259.2857142857142,406.9285714285714 1349.642857142857,407.46428571428567 1440,408 L 1440,700 L 0,700 Z" stroke="none" stroke-width="0" fill="url(#gradient)" fill-opacity="1" class="transition-all duration-300 ease-in-out delay-150 path-1"></path>
  <g transform="matrix(0.959233, 0, 0, -0.959233, 378.038355, 526.139092)">
    <path fill="white" d="M582 -77h-249q-26 0 -52 2t-51 8.5t-49 17t-45.5 25.5t-38 35.5t-27.5 44t-15.5 49t-4.5 51.5v368q0 26 4.5 51.5t15.5 49t27.5 44t38 35.5t45.5 25.5t49 16.5t51 8.5t52 2.5t52 -2.5t51.5 -8.5t49.5 -16.5t45 -25.5t38 -35.5t28 -44t15.5 -49t4.5 -51.5v-330 q0 -22 -9 -42.5t-27 -34t-39.5 -18t-43.5 -4.5h-165q-21 0 -42.5 4t-39.5 16.5t-27.5 32.5t-9.5 41v261q0 22 9 43.5t26.5 35t39.5 18.5t44 5q23 0 45 -5t39.5 -18.5t26 -35t8.5 -43.5v-289h46q8 0 15.5 1.5t14.5 5.5t11 11t4 15v330q0 25 -6.5 49.5t-21.5 45t-36.5 34.5 t-45.5 22.5t-49 11.5t-51 3q-25 0 -50 -3t-49 -11.5t-45.5 -22.5t-36.5 -34.5t-21.5 -45t-6.5 -49.5v-368q0 -25 6.5 -49.5t22 -44.5t37 -33.5t45 -21.5t48.5 -11t50 -3h249v-70zM333 161h46v289q0 8 -4 15.5t-10.5 12.5t-14.5 6.5t-17 1.5q-8 0 -16 -1.5t-15 -6.5 t-10.5 -12.5t-3.5 -15.5v-261q0 -7 4.5 -13.5t11.5 -9.5t14.5 -4t14.5 -1z"></path>
  </g>
</svg>